<svg width="42" height="36" viewBox="0 0 42 36" fill="none" xmlns="http://www.w3.org/2000/svg">
<rect y="4" width="42" height="25" fill="#FB1A2E"/>
<path d="M2.23 6H6.94L9.04 21.03H9.1L11.2 6H15.91V27H12.79V11.1H12.73L10.33 27H7.57L5.17 11.1H5.11V27H2.23V6ZM22.6626 27.3C21.0626 27.3 19.8526 26.85 19.0326 25.95C18.2126 25.03 17.8026 23.72 17.8026 22.02V20.82H20.9226V22.26C20.9226 23.62 21.4926 24.3 22.6326 24.3C23.1926 24.3 23.6126 24.14 23.8926 23.82C24.1926 23.48 24.3426 22.94 24.3426 22.2C24.3426 21.32 24.1426 20.55 23.7426 19.89C23.3426 19.21 22.6026 18.4 21.5226 17.46C20.1626 16.26 19.2126 15.18 18.6726 14.22C18.1326 13.24 17.8626 12.14 17.8626 10.92C17.8626 9.26 18.2826 7.98 19.1226 7.08C19.9626 6.16 21.1826 5.7 22.7826 5.7C24.3626 5.7 25.5526 6.16 26.3526 7.08C27.1726 7.98 27.5826 9.28 27.5826 10.98V11.85H24.4626V10.77C24.4626 10.05 24.3226 9.53 24.0426 9.21C23.7626 8.87 23.3526 8.7 22.8126 8.7C21.7126 8.7 21.1626 9.37 21.1626 10.71C21.1626 11.47 21.3626 12.18 21.7626 12.84C22.1826 13.5 22.9326 14.3 24.0126 15.24C25.3926 16.44 26.3426 17.53 26.8626 18.51C27.3826 19.49 27.6426 20.64 27.6426 21.96C27.6426 23.68 27.2126 25 26.3526 25.92C25.5126 26.84 24.2826 27.3 22.6626 27.3ZM29.5347 6H33.6747L36.8847 18.57H36.9447V6H39.8847V27H36.4947L32.5347 11.67H32.4747V27H29.5347V6Z" fill="white"/>
</svg>
